<svg width="15" height="15" viewBox="0 0 15 15" fill="none" xmlns="http://www.w3.org/2000/svg">
<path d="M14 7.5C14 11.0899 11.0899 14 7.5 14C3.91015 14 1 11.0899 1 7.5C1 3.91015 3.91015 1 7.5 1C11.0899 1 14 3.91015 14 7.5Z" fill="white"/>
<path d="M7.94824 5.7168V11H6.6543V5.7168H7.94824ZM6.56641 4.33496C6.56641 4.1429 6.63151 3.9834 6.76172 3.85645C6.89518 3.72949 7.07422 3.66602 7.29883 3.66602C7.52344 3.66602 7.70085 3.72949 7.83105 3.85645C7.96452 3.9834 8.03125 4.1429 8.03125 4.33496C8.03125 4.52376 7.96452 4.68164 7.83105 4.80859C7.70085 4.93555 7.52344 4.99902 7.29883 4.99902C7.07422 4.99902 6.89518 4.93555 6.76172 4.80859C6.63151 4.68164 6.56641 4.52376 6.56641 4.33496Z" fill="black"/>
<path d="M7.5 14.5C11.366 14.5 14.5 11.366 14.5 7.5C14.5 3.63401 11.366 0.5 7.5 0.5C3.63401 0.5 0.5 3.63401 0.5 7.5C0.5 11.366 3.63401 14.5 7.5 14.5Z" stroke="black"/>
</svg>
