<svg width="14" height="15" viewBox="0 0 14 15" fill="none" xmlns="http://www.w3.org/2000/svg">
<path d="M0.365661 7.63434C-0.0386447 8.03864 -0.00984637 8.72306 0.430033 9.16294L1.45878 10.1917C1.63644 10.3694 1.90964 10.3921 2.08697 10.244C2.61603 9.80201 3.43625 9.86829 3.97002 10.4021C4.50378 10.9358 4.57006 11.756 4.12811 12.2851C3.97997 12.4624 4.00271 12.7356 4.18038 12.9133L5.20911 13.942C5.64901 14.3819 6.33343 14.4107 6.73773 14.0064L13.64 7.10413C14.0443 6.69983 14.0155 6.01546 13.5755 5.57552L12.5466 4.54687C12.369 4.36928 12.0959 4.34656 11.9186 4.49463C11.3895 4.93645 10.5694 4.87013 10.0357 4.33642C9.50194 3.8027 9.43562 2.98259 9.87744 2.45352C10.0255 2.2762 10.0028 2.00308 9.8252 1.82544L8.79651 0.796509C8.35661 0.356609 7.67225 0.327754 7.26794 0.73206L0.365661 7.63434ZM1.8016 9.27952L1.05755 8.53547C0.994706 8.47263 0.990625 8.37482 1.04838 8.31706L7.95066 1.41478C8.00842 1.35702 8.10619 1.36115 8.16898 1.42394L8.91303 2.16817C8.44659 3.03443 8.62714 4.18286 9.40818 4.9639C10.1892 5.74493 11.3376 5.92548 12.2039 5.45904L12.9481 6.20304C13.0109 6.26588 13.015 6.36365 12.9573 6.42141L6.05501 13.3237C5.99725 13.3814 5.89945 13.3774 5.83658 13.3145L5.09255 12.5705C5.5591 11.7042 5.37859 10.5557 4.5975 9.77457C3.84765 9.02472 2.75917 8.82838 1.90687 9.22664L1.8016 9.27952Z" fill="black"/>
<path d="M0.365661 7.63434C-0.0386447 8.03864 -0.00984637 8.72306 0.430033 9.16294L1.45878 10.1917C1.63644 10.3694 1.90964 10.3921 2.08697 10.244C2.61603 9.80201 3.43625 9.86829 3.97002 10.4021C4.50378 10.9358 4.57006 11.756 4.12811 12.2851C3.97997 12.4624 4.00271 12.7356 4.18038 12.9133L5.20911 13.942C5.64901 14.3819 6.33343 14.4107 6.73773 14.0064L13.64 7.10413C14.0443 6.69983 14.0155 6.01546 13.5755 5.57552L12.5466 4.54687C12.369 4.36928 12.0959 4.34656 11.9186 4.49463C11.3895 4.93645 10.5694 4.87013 10.0357 4.33642C9.50194 3.8027 9.43562 2.98259 9.87744 2.45352C10.0255 2.2762 10.0028 2.00308 9.8252 1.82544L8.79651 0.796509C8.35661 0.356609 7.67225 0.327754 7.26794 0.73206L0.365661 7.63434ZM1.8016 9.27952L1.05755 8.53547C0.994706 8.47263 0.990625 8.37482 1.04838 8.31706L7.95066 1.41478C8.00842 1.35702 8.10619 1.36115 8.16898 1.42394L8.91303 2.16817C8.44659 3.03443 8.62714 4.18286 9.40818 4.9639C10.1892 5.74493 11.3376 5.92548 12.2039 5.45904L12.9481 6.20304C13.0109 6.26588 13.015 6.36365 12.9573 6.42141L6.05501 13.3237C5.99725 13.3814 5.89945 13.3774 5.83658 13.3145L5.09255 12.5705C5.5591 11.7042 5.37859 10.5557 4.5975 9.77457C3.84765 9.02472 2.75917 8.82838 1.90687 9.22664L1.8016 9.27952Z" stroke="black"/>
</svg>
